<svg width="24" height="24" viewBox="0 0 24 24" fill="none" xmlns="http://www.w3.org/2000/svg">
<circle cx="12" cy="12" r="12" fill="#E84A10"/>
<path d="M16.75 8V14.5C16.75 14.6989 16.671 14.8897 16.5303 15.0303C16.3896 15.171 16.1989 15.25 16 15.25C15.8011 15.25 15.6103 15.171 15.4696 15.0303C15.329 14.8897 15.25 14.6989 15.25 14.5V9.8125L8.5306 16.5306C8.3897 16.6715 8.19861 16.7507 7.99935 16.7507C7.80009 16.7507 7.60899 16.6715 7.4681 16.5306C7.3272 16.3897 7.24805 16.1986 7.24805 15.9994C7.24805 15.8001 7.3272 15.609 7.4681 15.4681L14.1875 8.75H9.49997C9.30106 8.75 9.11029 8.67098 8.96964 8.53033C8.82899 8.38968 8.74997 8.19891 8.74997 8C8.74997 7.80109 8.82899 7.61032 8.96964 7.46967C9.11029 7.32902 9.30106 7.25 9.49997 7.25H16C16.1989 7.25 16.3896 7.32902 16.5303 7.46967C16.671 7.61032 16.75 7.80109 16.75 8Z" fill="white"/>
</svg>
