<svg width="17" height="17" viewBox="0 0 17 17" fill="none" xmlns="http://www.w3.org/2000/svg">
<path d="M12.9531 4.05029V10.5503C12.9531 10.7492 12.8741 10.94 12.7334 11.0806C12.5928 11.2213 12.402 11.3003 12.2031 11.3003C12.0042 11.3003 11.8134 11.2213 11.6728 11.0806C11.5321 10.94 11.4531 10.7492 11.4531 10.5503V5.86279L4.73372 12.5809C4.59283 12.7218 4.40173 12.801 4.20247 12.801C4.00322 12.801 3.81212 12.7218 3.67122 12.5809C3.53033 12.44 3.45117 12.2489 3.45117 12.0497C3.45117 11.8504 3.53033 11.6593 3.67122 11.5184L10.3906 4.80029H5.7031C5.50419 4.80029 5.31342 4.72128 5.17277 4.58062C5.03212 4.43997 4.9531 4.24921 4.9531 4.05029C4.9531 3.85138 5.03212 3.66062 5.17277 3.51996C5.31342 3.37931 5.50419 3.30029 5.7031 3.30029H12.2031C12.402 3.30029 12.5928 3.37931 12.7334 3.51996C12.8741 3.66062 12.9531 3.85138 12.9531 4.05029Z" fill="black"/>
</svg>
