<svg width="16" height="16" viewBox="0 0 16 16" fill="none" xmlns="http://www.w3.org/2000/svg">
<path d="M13.5306 7.96956C13.6005 8.03924 13.656 8.12203 13.6938 8.2132C13.7317 8.30436 13.7512 8.4021 13.7512 8.50081C13.7512 8.59952 13.7317 8.69726 13.6938 8.78843C13.656 8.87959 13.6005 8.96238 13.5306 9.03206L8.5306 14.0321C8.46092 14.102 8.37813 14.1575 8.28696 14.1953C8.1958 14.2332 8.09806 14.2527 7.99935 14.2527C7.90064 14.2527 7.8029 14.2332 7.71173 14.1953C7.62057 14.1575 7.53778 14.102 7.4681 14.0321L2.4681 9.03206C2.39833 8.9623 2.34299 8.87948 2.30524 8.78832C2.26748 8.69717 2.24805 8.59947 2.24805 8.50081C2.24805 8.40215 2.26748 8.30445 2.30524 8.2133C2.34299 8.12215 2.39833 8.03933 2.4681 7.96956C2.53786 7.8998 2.62069 7.84446 2.71184 7.8067C2.80299 7.76894 2.90069 7.74951 2.99935 7.74951C3.09801 7.74951 3.19571 7.76894 3.28686 7.8067C3.37801 7.84446 3.46083 7.8998 3.5306 7.96956L7.99997 12.4377L12.4693 7.96769C12.5391 7.89808 12.6219 7.84291 12.7131 7.80532C12.8042 7.76774 12.9018 7.74849 13.0004 7.74866C13.0989 7.74883 13.1965 7.76843 13.2875 7.80634C13.3784 7.84424 13.4611 7.89971 13.5306 7.96956ZM7.4681 9.03206C7.53778 9.10198 7.62057 9.15746 7.71173 9.19531C7.8029 9.23317 7.90064 9.25265 7.99935 9.25265C8.09806 9.25265 8.1958 9.23317 8.28696 9.19531C8.37813 9.15746 8.46092 9.10198 8.5306 9.03206L13.5306 4.03206C13.6004 3.9623 13.6557 3.87948 13.6935 3.78832C13.7312 3.69717 13.7506 3.59947 13.7506 3.50081C13.7506 3.40215 13.7312 3.30445 13.6935 3.2133C13.6557 3.12215 13.6004 3.03933 13.5306 2.96956C13.4608 2.8998 13.378 2.84446 13.2869 2.8067C13.1957 2.76894 13.098 2.74951 12.9993 2.74951C12.9007 2.74951 12.803 2.76894 12.7118 2.8067C12.6207 2.84446 12.5379 2.8998 12.4681 2.96956L7.99997 7.43769L3.5306 2.96956C3.3897 2.82867 3.19861 2.74951 2.99935 2.74951C2.80009 2.74951 2.60899 2.82867 2.4681 2.96956C2.3272 3.11046 2.24805 3.30156 2.24805 3.50081C2.24805 3.70007 2.3272 3.89117 2.4681 4.03206L7.4681 9.03206Z" fill="black"/>
</svg>
