<svg width="25" height="25" viewBox="0 0 25 25" fill="none" xmlns="http://www.w3.org/2000/svg">
<path d="M12.3189 2.2832C10.3163 2.2832 8.35875 2.87702 6.6937 3.98957C5.02866 5.10212 3.73091 6.68343 2.96457 8.53353C2.19823 10.3836 1.99773 12.4194 2.3884 14.3835C2.77908 16.3475 3.74339 18.1517 5.1594 19.5677C6.5754 20.9837 8.3795 21.948 10.3436 22.3387C12.3076 22.7293 14.3434 22.5288 16.1935 21.7625C18.0436 20.9961 19.6249 19.6984 20.7375 18.0334C21.85 16.3683 22.4439 14.4107 22.4439 12.4082C22.4409 9.7238 21.3732 7.1502 19.475 5.25204C17.5769 3.35388 15.0033 2.28618 12.3189 2.2832ZM20.1123 11.2832C20.0185 11.2832 19.9173 11.2832 19.8198 11.2832C18.5119 11.284 17.209 11.4432 15.9395 11.7576C15.6642 10.9938 15.3314 10.252 14.9439 9.53852C16.0734 8.82108 17.1095 7.96609 18.0282 6.9932C19.1511 8.1724 19.8794 9.67164 20.1123 11.2832ZM16.2564 5.59258C15.4958 6.37302 14.6462 7.06148 13.7251 7.64383C12.8998 6.53496 11.9364 5.53596 10.8582 4.67102C12.7099 4.31845 14.6266 4.64566 16.2564 5.59258ZM8.33823 5.61789C9.62119 6.45396 10.7582 7.49499 11.7039 8.69945C9.99921 9.41661 8.16821 9.78511 6.31885 9.7832C5.8501 9.7832 5.38135 9.75883 4.91823 9.71289C5.55015 7.99362 6.7584 6.5465 8.33729 5.61789H8.33823ZM4.44385 12.4082C4.44385 12.246 4.45041 12.0857 4.45979 11.9263C5.07696 11.9971 5.69764 12.0328 6.31885 12.0332C8.60887 12.0351 10.873 11.5487 12.9601 10.6063C13.284 11.1989 13.5635 11.8146 13.7964 12.4485C13.1018 12.7272 12.4276 13.0542 11.7789 13.4273C9.80021 14.5697 8.08526 16.1172 6.74635 17.9685C6.01584 17.2386 5.43645 16.3718 5.04136 15.4177C4.64626 14.4636 4.44322 13.4409 4.44385 12.4082ZM8.54729 19.3195C9.7032 17.7112 11.1879 16.3671 12.9029 15.3763C13.3874 15.0981 13.8883 14.8495 14.4029 14.632C14.5692 15.4971 14.653 16.376 14.6532 17.257C14.654 18.1806 14.5629 19.102 14.3814 20.0076C12.4211 20.5409 10.3305 20.2943 8.54823 19.3195H8.54729ZM16.8245 18.861C16.877 18.3285 16.9051 17.7923 16.9051 17.2541C16.9045 16.1344 16.7876 15.0178 16.5564 13.9223C17.6247 13.6646 18.7198 13.534 19.8189 13.5332C19.9126 13.5332 20.0129 13.5332 20.1104 13.5332C19.9556 14.5986 19.5842 15.621 19.0191 16.5373C18.4539 17.4536 17.707 18.2445 16.8245 18.861Z" fill="black"/>
</svg>
