<svg width="24" height="24" viewBox="0 0 24 24" fill="none" xmlns="http://www.w3.org/2000/svg">
<circle cx="12" cy="12" r="12" fill="black"/>
<path d="M17.5306 11.9696C17.6005 12.0392 17.656 12.122 17.6938 12.2132C17.7317 12.3044 17.7512 12.4021 17.7512 12.5008C17.7512 12.5995 17.7317 12.6973 17.6938 12.7884C17.656 12.8796 17.6005 12.9624 17.5306 13.0321L12.5306 18.0321C12.4609 18.102 12.3781 18.1575 12.287 18.1953C12.1958 18.2332 12.0981 18.2527 11.9993 18.2527C11.9006 18.2527 11.8029 18.2332 11.7117 18.1953C11.6206 18.1575 11.5378 18.102 11.4681 18.0321L6.4681 13.0321C6.39833 12.9623 6.34299 12.8795 6.30524 12.7883C6.26748 12.6972 6.24805 12.5995 6.24805 12.5008C6.24805 12.4022 6.26748 12.3045 6.30524 12.2133C6.34299 12.1222 6.39833 12.0393 6.4681 11.9696C6.53786 11.8998 6.62069 11.8445 6.71184 11.8067C6.80299 11.7689 6.90069 11.7495 6.99935 11.7495C7.09801 11.7495 7.19571 11.7689 7.28686 11.8067C7.37801 11.8445 7.46083 11.8998 7.5306 11.9696L12 16.4377L16.4693 11.9677C16.5391 11.8981 16.6219 11.8429 16.7131 11.8053C16.8042 11.7677 16.9018 11.7485 17.0004 11.7487C17.0989 11.7488 17.1965 11.7684 17.2875 11.8063C17.3784 11.8442 17.4611 11.8997 17.5306 11.9696ZM11.4681 13.0321C11.5378 13.102 11.6206 13.1575 11.7117 13.1953C11.8029 13.2332 11.9006 13.2527 11.9993 13.2527C12.0981 13.2527 12.1958 13.2332 12.287 13.1953C12.3781 13.1575 12.4609 13.102 12.5306 13.0321L17.5306 8.03206C17.6004 7.9623 17.6557 7.87948 17.6935 7.78832C17.7312 7.69717 17.7506 7.59947 17.7506 7.50081C17.7506 7.40215 17.7312 7.30445 17.6935 7.2133C17.6557 7.12215 17.6004 7.03933 17.5306 6.96956C17.4608 6.8998 17.378 6.84446 17.2869 6.8067C17.1957 6.76894 17.098 6.74951 16.9993 6.74951C16.9007 6.74951 16.803 6.76894 16.7118 6.8067C16.6207 6.84446 16.5379 6.8998 16.4681 6.96956L12 11.4377L7.5306 6.96956C7.3897 6.82867 7.19861 6.74951 6.99935 6.74951C6.80009 6.74951 6.60899 6.82867 6.4681 6.96956C6.3272 7.11046 6.24805 7.30156 6.24805 7.50081C6.24805 7.70007 6.3272 7.89117 6.4681 8.03206L11.4681 13.0321Z" fill="white"/>
</svg>
